<?xml version="1.0" standalone="no"?><!DOCTYPE svg PUBLIC "-//W3C//DTD SVG 1.1//EN" "http://www.w3.org/Graphics/SVG/1.1/DTD/svg11.dtd"><svg t="1748308482332" class="icon" viewBox="0 0 1024 1024" version="1.1" xmlns="http://www.w3.org/2000/svg" p-id="1011" xmlns:xlink="http://www.w3.org/1999/xlink" width="200" height="200"><path d="M813 776.63V589.27C813 399.69 659.31 246 469.73 246H259v210.73C259 646.31 412.69 800 602.27 800h209.71l1.02-23.37z" fill="#59E47F" p-id="1012"></path><path d="M679.21 798.52h-98.18c-49.37 0-97.27-9.67-142.38-28.75-43.56-18.42-82.67-44.79-116.26-78.38-33.58-33.58-59.95-72.7-78.38-116.26-19.08-45.11-28.75-93.01-28.75-142.38V199.52h233.23c49.37 0 97.27 9.67 142.38 28.75 43.56 18.42 82.67 44.79 116.26 78.38 33.58 33.58 59.95 72.7 78.38 116.26 19.08 45.11 28.75 93.01 28.75 142.38v98.18h-45v-98.18c0-85.68-33.37-166.23-93.95-226.82-60.58-60.58-141.14-93.95-226.82-93.95H260.26v188.23c0 85.68 33.37 166.23 93.95 226.82 60.58 60.58 141.14 93.95 226.82 93.95h98.18v45z" fill="#331E17" p-id="1013"></path><path d="M572.54 369.7h45V568h-45zM404.95 489.77h111.47v45H404.95z" fill="#FFFFFF" p-id="1014"></path><path d="M774.682 793.613l34.643-34.654 64.754 64.731-34.643 34.654z" fill="#331E17" p-id="1015"></path><path d="M403.558 419.786l31.815-31.825 357.172 357.048-31.814 31.825z" fill="#FFFFFF" p-id="1016"></path></svg>